PathFileType	4	(X/Y/Z)	TRC_standard
DataRate	CameraRate	NumFrames	NumMarkers	Units	OrigDataRate	OrigDataStartFrame	OrigNumFrames
100.00	100.00	       8	33	mm	100.00	280	       2234
Frame#	Time	T10			C7			CLAV			RACR1			LACR1			RPSI			LPSI			RASI			LASI			LTH2			LTH1			RTH2			RTH3			RTH1			RLFC			RTB1			RTB3			RTB2			LLFC			LTB1			LTB3			LTB2			LLMAL			LMMAL			RLMAL			RCAL			RMT5			RMT1			LMT5			LMT1			LTH3			LCAL			LToe			
		X1	Y1	Z1	X2	Y2	Z2	X3	Y3	Z3	X4	Y4	Z4	X5	Y5	Z5	X6	Y6	Z6	X7	Y7	Z7	X8	Y8	Z8	X9	Y9	Z9	X10	Y10	Z10	X11	Y11	Z11	X12	Y12	Z12	X13	Y13	Z13	X14	Y14	Z14	X15	Y15	Z15	X16	Y16	Z16	X17	Y17	Z17	X18	Y18	Z18	X19	Y19	Z19	X20	Y20	Z20	X21	Y21	Z21	X22	Y22	Z22	X23	Y23	Z23	X24	Y24	Z24	X25	Y25	Z25	X26	Y26	Z26	X27	Y27	Z27	X28	Y28	Z28	X29	Y29	Z29	X30	Y30	Z30	X31	Y31	Z31	X32	Y32	Z32	X33	Y33	Z33	
280	2.790000	754.141418	1211.459717	-789.575684	743.080627	1469.880249	-670.410461	751.089783	1311.947510	-570.026550	584.829773	1414.269653	-650.618774	921.516785	1416.442505	-649.418884	687.934814	990.370972	-854.125549	774.723206	1003.576233	-856.233032	624.367920	959.975403	-618.733093	879.837769	965.978943	-623.337891	939.746887	757.861511	-726.958191	904.742371	826.072693	-652.907471	611.851563	729.404236	-539.023315	566.733398	775.725647	-595.415405	641.511780	832.609314	-577.042969	599.804626	511.629822	-519.040466	639.973877	417.614746	-447.031006	617.178345	336.604584	-454.491852	640.205566	286.895721	-435.304718	881.124512	491.816254	-839.082581	825.188416	373.644287	-844.559998	854.939819	316.809113	-889.124939	811.178223	267.302673	-901.544922	831.150757	105.019890	-1028.754028	788.687012	77.381371	-1096.109619	627.423584	84.206062	-442.925201	672.198303	28.350693	-491.626221	627.616638	73.834366	-328.753418	700.817566	88.877396	-308.190430	851.291565	40.549324	-922.951111	779.793579	51.253117	-892.277588	903.517761	687.291382	-720.048035	0.000000	0.000000	0.000000	0.000000	0.000000	0.000000	
281	2.800000	753.001587	1210.968018	-787.567261	741.943176	1469.547485	-668.657532	750.128723	1311.655151	-568.123108	583.712769	1413.759888	-648.712097	920.419983	1416.157593	-647.767883	686.368713	989.998962	-851.576294	773.170532	1003.089722	-853.877869	623.585144	959.646851	-616.029663	879.058411	965.403809	-621.400146	938.782043	757.324463	-726.065674	903.824036	825.319519	-651.567566	612.192139	729.032043	-536.263184	566.577881	775.266846	-592.324524	641.349976	832.342773	-574.145081	600.244995	511.084686	-516.562805	641.043518	416.973816	-445.146454	618.013611	335.965607	-452.493011	641.192688	286.323944	-433.715057	880.397278	491.840179	-839.851318	824.927368	373.512695	-846.965942	854.686462	317.653839	-892.348145	811.166504	268.163116	-905.586121	831.418152	107.985199	-1035.658081	788.891052	81.913010	-1103.476196	628.003723	83.918167	-442.352356	672.309326	28.618719	-491.899597	629.089722	72.480904	-328.540283	702.525208	87.188423	-308.333893	851.276672	40.502632	-931.437988	779.870361	51.085598	-900.793457	902.816528	686.750427	-720.057190	0.000000	0.000000	0.000000	0.000000	0.000000	0.000000	
282	2.810000	751.813232	1210.567871	-785.454041	740.784180	1469.314331	-666.815735	749.131531	1311.481201	-566.118652	582.570068	1413.375366	-646.688232	919.300476	1415.968018	-646.039246	684.767944	989.737854	-848.902893	771.592285	1002.676697	-851.389648	622.736938	959.448364	-613.217468	878.202759	964.919189	-619.333984	937.746521	756.821228	-724.874329	902.821777	824.662476	-650.020508	612.520325	728.766968	-533.364441	566.394287	774.933533	-589.090332	641.145569	832.194824	-571.116455	600.681396	510.588013	-514.109985	642.147034	416.218262	-443.625854	618.879700	335.263489	-451.098999	642.218567	285.648224	-432.918732	879.662292	491.845978	-840.128235	824.712097	373.374634	-848.920898	854.461792	318.558350	-895.150452	811.204224	269.087708	-909.176453	831.728271	111.161995	-1042.275879	789.087830	86.786263	-1110.509888	628.576050	83.643532	-443.296570	672.375488	29.082577	-493.896881	630.528259	70.776993	-329.932465	704.239929	85.030899	-310.021545	851.249634	40.476646	-939.942871	779.943848	50.891743	-909.336426	902.084412	686.230896	-719.751648	0.000000	0.000000	0.000000	0.000000	0.000000	0.000000	
283	2.820000	750.580811	1210.263672	-783.243530	739.608459	1469.183472	-664.890503	748.101746	1311.428467	-564.019531	581.406921	1413.120850	-644.553223	918.162659	1415.876709	-644.235840	683.135254	989.593567	-846.115234	769.991028	1002.341980	-848.779358	621.825439	959.384644	-610.305664	877.272827	964.528503	-617.149292	936.637634	756.358032	-723.381287	901.738953	824.106995	-648.271667	612.829834	728.602478	-530.349731	566.178833	774.724365	-585.731567	640.893250	832.162720	-567.971985	601.113953	510.138641	-511.705994	643.277100	415.358643	-442.460968	619.768616	334.500092	-450.278839	643.274170	284.871948	-432.861389	878.932861	491.829407	-839.897217	824.557190	373.227173	-850.399902	854.276733	319.518463	-897.509583	811.303040	270.072662	-912.283020	832.081055	114.550522	-1048.561890	789.267639	92.008118	-1117.143066	629.127197	83.368233	-445.612823	672.384155	29.698999	-497.440338	631.902954	68.778320	-332.763824	705.932434	82.472740	-313.082214	851.203308	40.476894	-948.464478	780.007446	50.669868	-917.907715	901.322083	685.737610	-719.110657	0.000000	0.000000	0.000000	0.000000	0.000000	0.000000	
284	2.830000	749.308655	1210.058472	-780.944275	738.421082	1469.156738	-662.888062	747.043335	1311.498657	-561.833069	580.228821	1412.999878	-642.314026	917.010986	1415.885742	-642.361694	681.473328	989.570435	-843.224915	768.369202	1002.089844	-846.059875	620.853455	959.458618	-607.304687	876.271179	964.234802	-614.857971	935.453979	755.941589	-721.587280	900.580078	823.658081	-646.328979	613.113708	728.527649	-527.245911	565.927673	774.634521	-582.270996	640.587830	832.240051	-564.729309	601.541687	509.732697	-509.379456	644.425476	414.406036	-441.644562	620.671753	333.678345	-450.000031	644.349915	284.001221	-433.485596	878.223083	491.786926	-839.144226	824.477234	373.068237	-851.378784	854.142151	320.529694	-899.403076	811.474426	271.113800	-914.876282	832.475708	118.149200	-1054.467163	789.421448	97.582214	-1123.303101	629.645996	83.083939	-449.144714	672.326416	30.428659	-502.337372	633.188660	66.550247	-336.857208	707.576416	79.593506	-317.335602	851.130310	40.510735	-956.997070	780.054382	50.420708	-926.503784	900.530334	685.276978	-718.111938	0.000000	0.000000	0.000000	0.000000	0.000000	0.000000	
285	2.840000	748.001038	1209.954834	-778.566040	737.227112	1469.234985	-660.815613	745.960999	1311.692261	-559.567993	579.041504	1413.014282	-639.978394	915.850098	1415.996338	-640.422485	679.784729	989.671509	-840.244934	766.728943	1001.923584	-843.245911	619.824402	959.671265	-604.226135	875.201355	964.039978	-612.473206	934.196289	755.578491	-719.497192	899.351013	823.320557	-644.202393	613.364990	728.528381	-524.083740	565.637146	774.655762	-578.734741	640.224548	832.417114	-561.408203	601.962646	509.363861	-507.162476	645.582581	413.371796	-441.170441	621.580017	332.802216	-450.229370	645.436096	283.044434	-434.732422	877.547607	491.715942	-837.856934	824.486328	372.896515	-851.834106	854.068298	321.587524	-900.808167	811.729248	272.206299	-916.930786	832.910828	121.954384	-1059.940796	789.541260	103.507896	-1128.915283	630.124390	82.787231	-453.730255	672.197510	31.236391	-508.387787	634.364929	64.164131	-342.030853	709.149048	76.480408	-322.598816	851.023376	40.587822	-965.529236	780.077942	50.148117	-935.114502	899.710754	684.856628	-716.733582	0.000000	0.000000	0.000000	0.000000	0.000000	0.000000	
286	2.850000	746.662354	1209.953979	-776.119568	736.031555	1469.417725	-658.681030	744.859985	1312.007813	-557.233826	577.850708	1413.164673	-637.554626	914.684631	1416.208008	-638.425171	678.072083	989.898010	-837.189758	765.072266	1001.845520	-840.353577	618.742432	960.021545	-601.082886	874.067444	963.945496	-610.009766	932.867981	755.275208	-717.120483	898.058899	823.098816	-641.904053	613.576477	728.587891	-520.896851	565.303833	774.777100	-575.151794	639.798950	832.681702	-558.030762	602.373657	509.024109	-505.089783	646.738037	412.267365	-441.033508	622.483704	331.876526	-450.934052	646.522705	282.011871	-436.543274	876.921143	491.614807	-836.025452	824.597412	372.711700	-851.743713	854.064331	322.687256	-901.702271	812.077209	273.344849	-918.426086	833.383911	125.960136	-1064.929932	789.620667	109.779343	-1133.904053	630.557068	82.478783	-459.207550	671.997070	32.091251	-515.390991	635.416626	61.693611	-348.104553	710.631531	73.224083	-328.692413	850.876160	40.720581	-974.041565	780.072388	49.859699	-943.720947	898.865723	684.484924	-714.956299	0.000000	0.000000	0.000000	0.000000	0.000000	0.000000	
287	2.860000	745.296936	1210.056274	-773.616638	734.839417	1469.703613	-656.492981	743.745850	1312.442993	-554.841248	576.662170	1413.450073	-635.052002	913.519470	1416.519775	-636.378174	676.337952	990.249634	-834.075195	763.401001	1001.856812	-837.400452	617.612183	960.506409	-597.888855	872.874207	963.951721	-607.483643	931.475342	755.037659	-714.471069	896.711731	822.996826	-639.448181	613.741333	728.687561	-517.720947	564.924805	774.985535	-571.553284	639.307556	833.019226	-554.620605	602.770569	508.704163	-503.197571	647.880493	411.104126	-441.229645	623.373047	330.906830	-452.082397	647.599670	280.915161	-438.861450	876.358215	491.482971	-833.641724	824.822205	372.514374	-851.086792	854.138306	323.824188	-902.062927	812.526245	274.523712	-919.347046	833.891479	130.157944	-1069.380981	789.655090	116.384605	-1138.196167	630.941650	82.162346	-465.419769	671.728760	32.966469	-523.152466	636.334045	59.210991	-354.905487	712.009399	69.914520	-335.446259	850.683838	40.924599	-982.504700	780.033325	49.567196	-952.293213	897.999329	684.170288	-712.765869	0.000000	0.000000	0.000000	0.000000	0.000000	0.000000	
